<svg width="37" height="38" viewBox="0 0 37 38" fill="none" xmlns="http://www.w3.org/2000/svg">
<path d="M16.1864 0.0984796C12.9762 0.506921 10.0263 1.73225 7.36566 3.7596C6.28114 4.59134 4.47362 6.44789 3.66385 7.56182C1.66834 10.3244 0.489839 13.3468 0.0921837 16.6961C-0.0307279 17.7951 -0.0307279 20.2012 0.0921837 21.3003C0.489839 24.6495 1.66834 27.672 3.66385 30.4345C4.47362 31.5485 6.28114 33.405 7.36566 34.2368C10.0553 36.2864 12.9979 37.4969 16.2587 37.9053C17.3287 38.0316 19.6713 38.0316 20.7413 37.9053C24.0021 37.4969 26.9447 36.2864 29.6343 34.2368C30.7189 33.405 32.5264 31.5485 33.3362 30.4345C35.3317 27.672 36.5102 24.6495 36.9078 21.3003C37.0307 20.2012 37.0307 17.7951 36.9078 16.6961C36.5102 13.3468 35.3317 10.3244 33.3362 7.56182C32.5264 6.44789 30.7189 4.59134 29.6343 3.7596C26.9447 1.70997 24.0021 0.499495 20.7413 0.0910534C19.7074 -0.0351922 17.213 -0.027766 16.1864 0.0984796ZM20.7919 2.43031C26.1422 3.23977 30.7261 6.66325 33.1048 11.6091C34.2399 13.9781 34.7677 16.3099 34.7677 18.9982C34.7605 22.3697 33.9218 25.2882 32.1215 28.1324C31.6949 28.8156 30.9936 29.7588 30.8996 29.7885C30.8707 29.7959 30.7405 29.4543 30.6032 29.0236C29.562 25.7412 27.1617 22.8969 24.1322 21.3746C23.749 21.1815 23.3225 20.9884 23.1923 20.9364L22.9465 20.8473L23.1634 20.6914C23.6117 20.3646 24.7106 19.1616 25.0432 18.6269C25.9615 17.1565 26.3663 15.5821 26.2868 13.8295C26.135 10.3169 23.8069 7.37617 20.4304 6.43304C19.9171 6.28451 19.664 6.26966 18.5 6.26966C16.9961 6.26966 16.5045 6.35877 15.3766 6.86376C10.9662 8.83913 9.33947 14.4311 11.9495 18.612C12.2749 19.1393 13.3016 20.2755 13.8004 20.6542L14.0535 20.8473L13.6558 21.0107C10.2794 22.4217 7.58979 25.3773 6.42574 28.927C6.27391 29.3875 6.12931 29.7736 6.10039 29.7736C5.94133 29.7736 4.70498 27.9542 4.13381 26.87C2.26121 23.3202 1.72618 18.8719 2.69502 14.936C4.30733 8.38613 9.61422 3.45513 16.143 2.43774C17.3938 2.24465 19.5267 2.24465 20.7919 2.43031ZM19.8376 8.67575C22.3319 9.32926 24.0672 11.6165 24.0672 14.2454C24.0672 15.7826 23.5321 17.0822 22.4404 18.2259C20.228 20.5354 16.772 20.5354 14.5596 18.2259C13.4679 17.0822 12.9328 15.7826 12.9328 14.2454C12.9328 11.6314 14.6608 9.34411 17.1335 8.67575C17.8782 8.47524 19.0784 8.47524 19.8376 8.67575ZM20.416 22.5182C24.0816 23.2014 27.2484 26.0382 28.4341 29.6994C28.68 30.4494 28.9186 31.4816 28.9113 31.749C28.9041 31.8975 28.0582 32.5659 27.14 33.16C24.4576 34.8828 21.6596 35.7072 18.5 35.7072C14.8777 35.7072 11.682 34.6081 8.68153 32.3357L8.08867 31.8827L8.12482 31.5113C8.22604 30.6202 8.61646 29.3577 9.10811 28.3478C10.0914 26.3204 11.9495 24.4193 13.8944 23.4539C15.5357 22.6445 16.9528 22.3251 18.7169 22.3771C19.2953 22.392 20.0617 22.4514 20.416 22.5182Z" fill="#065F5E"/>
</svg>
